<svg width="66" height="66" viewBox="0 0 66 66" fill="none" xmlns="http://www.w3.org/2000/svg">
<path d="M59.3561 54.7462V41.7891C59.3561 38.7673 56.9061 36.3162 53.8833 36.3162H53.2788V31.0715L56.1373 24.4288H46.8433L49.7028 31.0737V36.3162H44.0739V33.1886H39.9615V36.3162H36.0294V27.7009C36.0294 25.3504 34.124 23.4451 31.7725 23.4451H9.06167H6.83791H3.31632C2.03692 23.4451 1 24.482 1 25.762C1 27.0409 2.03692 28.0778 3.31632 28.0778H3.49343V57.2485C3.49343 58.4248 4.44657 59.377 5.62193 59.377H6.0597V59.3676C6.0597 54.7652 9.80546 51.0206 14.4088 51.0206C18.5515 51.0206 21.9903 54.0581 22.6367 58.0206C23.284 54.0581 26.7239 51.0206 30.8696 51.0206C35.0133 51.0206 38.4532 54.0591 39.0985 58.0248C39.7438 54.0591 43.1835 51.0206 47.3283 51.0206C51.9318 51.0206 55.6765 54.7652 55.6765 59.3676L55.6755 59.377H55.6765V63.4734H64.6548V60.0441L59.3561 54.7462ZM20.2966 38.9087H8.10003V29.1233C8.10003 28.8153 8.35346 28.565 8.66567 28.565H20.2965V38.9087H20.2966ZM31.2426 38.9087H23.2463V28.565H29.9008C30.6403 28.565 31.2426 29.1588 31.2426 29.889V38.9087Z" fill="#FFA987"/>
<path d="M63.2004 41.6793H60.6529V54.014H63.2004V41.6793Z" fill="#FFA987"/>
<path d="M41.4813 28.8081C40.6424 28.8081 39.9615 29.489 39.9615 30.328V31.9369H44.0739V30.328C44.0739 29.489 43.393 28.8081 42.5541 28.8081H41.4813Z" fill="#FFA987"/>
<path d="M41.341 19.3171H45.6252C47.4425 19.3192 48.913 20.7909 48.9161 22.6081V23.357H50.8466V22.6081C50.8466 19.7234 48.5098 17.3866 45.6252 17.3856H41.341C39.841 17.3856 38.492 16.7801 37.5083 15.7976C36.5258 14.8151 35.9215 13.4659 35.9203 11.966V11.8257C35.9203 11.5713 35.8177 11.3229 35.6385 11.1428C35.4583 10.9626 35.2102 10.86 34.9556 10.86H10.3751V12.7915H34.0392C34.4509 16.4618 37.5608 19.3161 41.341 19.3171Z" fill="#FFA987"/>
<path d="M38.7495 3.42942C39.6766 4.35742 40.2474 5.63114 40.2474 7.0473V7.14991C40.2485 8.85947 41.6322 10.242 43.3417 10.2442H44.1577C46.3647 10.242 48.3935 11.2854 49.8925 12.9339C51.3893 14.5785 52.3162 16.8138 52.3131 19.0699V22.9989H54.2446V19.0699C54.2415 16.2878 53.1259 13.6263 51.3222 11.6351C49.5195 9.64799 46.9878 8.31368 44.1576 8.31252H43.3416C42.6994 8.31149 42.1799 7.79097 42.1778 7.14979V7.0473C42.1778 3.15498 39.024 0 35.1326 0H10.3751V1.93153H35.1327C36.5478 1.93153 37.8205 2.5013 38.7495 3.42942Z" fill="#FFA987"/>
<path d="M47.3281 52.7361C43.9031 52.7361 41.087 55.3316 40.7345 58.6615H37.4622C37.1097 55.3316 34.2926 52.7361 30.8695 52.7361C27.4445 52.7361 24.6256 55.3316 24.2726 58.6615H21.0015C20.6491 55.3316 17.8319 52.7361 14.4088 52.7361C10.7448 52.7361 7.77544 55.7055 7.77544 59.3675C7.77544 63.0315 10.7449 66 14.4088 66C17.7016 66 20.4271 63.5972 20.9445 60.4495H24.3298C24.8479 63.5972 27.5748 66 30.8696 66C34.1623 66 36.8879 63.5972 37.4052 60.4495H40.7916C41.309 63.5972 44.0336 66 47.3281 66C50.9901 66 53.9606 63.0315 53.9606 59.3675C53.9606 55.7055 50.9901 52.7361 47.3281 52.7361ZM14.4078 61.2445C15.041 61.2445 15.5976 60.9293 15.9375 60.4495H17.6303C17.1752 61.8007 15.9108 62.7822 14.4088 62.7822C12.5255 62.7822 10.9932 61.2508 10.9932 59.3675C10.9932 57.4852 12.5256 55.9538 14.4088 55.9538C16.0492 55.9538 17.4209 57.1176 17.7471 58.6615H16.1451C15.8655 57.9765 15.1945 57.4905 14.4079 57.4905C13.371 57.4905 12.5309 58.3328 12.5309 59.3675C12.5308 60.4044 13.3709 61.2445 14.4078 61.2445ZM30.8696 62.7822C29.3661 62.7822 28.1002 61.8007 27.6445 60.4495H29.3377C29.6776 60.9293 30.2343 61.2445 30.8676 61.2445C31.5008 61.2445 32.0574 60.9293 32.3973 60.4495H34.091C33.636 61.8007 32.3717 62.7822 30.8696 62.7822ZM32.6047 58.6615C32.3251 57.9765 31.6542 57.4905 30.8676 57.4905C30.081 57.4905 29.41 57.9765 29.1308 58.6615H27.5272C27.8541 57.1176 29.2279 55.9538 30.8696 55.9538C32.51 55.9538 33.8815 57.1176 34.2078 58.6615H32.6047ZM47.3281 62.7822C45.8251 62.7822 44.5608 61.8007 44.1057 60.4495H45.7984C46.1383 60.9293 46.6951 61.2445 47.3281 61.2445C48.3651 61.2445 49.2051 60.4044 49.2051 59.3675C49.2051 58.3326 48.3651 57.4905 47.3281 57.4905C46.5416 57.4905 45.8707 57.9765 45.5915 58.6615H43.989C44.3152 57.1176 45.6874 55.9538 47.3281 55.9538C49.2115 55.9538 50.7429 57.4852 50.7429 59.3675C50.7429 61.2508 49.2116 62.7822 47.3281 62.7822Z" fill="#FFA987"/>
</svg>
